<?xml version="1.0" encoding="UTF-8" standalone="no"?>
<!DOCTYPE svg PUBLIC "-//W3C//DTD SVG 1.1//EN"
 "http://www.w3.org/Graphics/SVG/1.1/DTD/svg11.dtd">
<!-- Generated by graphviz version 2.26.0 (20091210.2329)
 -->
<!-- Title: controllers_diagram Pages: 1 -->
<svg width="458pt" height="404pt"
 viewBox="0.00 0.00 458.00 404.00" xmlns="http://www.w3.org/2000/svg" xmlns:xlink="http://www.w3.org/1999/xlink">
<g id="graph1" class="graph" transform="scale(1 1) rotate(0) translate(4 400)">
<title>controllers_diagram</title>
<polygon fill="white" stroke="white" points="-4,5 -4,-400 455,-400 455,5 -4,5"/>
<!-- _diagram_info -->
<g id="node1" class="node"><title>_diagram_info</title>
<text text-anchor="start" x="243" y="-366.3" font-family="Times Roman,serif" font-size="13.00">Controllers diagram</text>
<text text-anchor="start" x="243" y="-349.3" font-family="Times Roman,serif" font-size="13.00">Date: Apr 25 2012 &#45; 15:28</text>
<text text-anchor="start" x="243" y="-332.3" font-family="Times Roman,serif" font-size="13.00">Migration version: 20120425041903</text>
<text text-anchor="start" x="243" y="-315.3" font-family="Times Roman,serif" font-size="13.00">Generated by RailRoady 1.0.7</text>
<text text-anchor="start" x="243" y="-298.3" font-family="Times Roman,serif" font-size="13.00">http://railroady.prestonlee.com</text>
</g>
<!-- MembersController -->
<g id="node2" class="node"><title>MembersController</title>
<polyline fill="none" stroke="black" points="157,-55.5 258,-55.5 "/>
<path fill="none" stroke="black" d="M258,-55.5C264,-55.5 270,-61.5 270,-67.5"/>
<polyline fill="none" stroke="black" points="270,-67.5 270,-243.5 "/>
<path fill="none" stroke="black" d="M270,-243.5C270,-249.5 264,-255.5 258,-255.5"/>
<polyline fill="none" stroke="black" points="258,-255.5 157,-255.5 "/>
<path fill="none" stroke="black" d="M157,-255.5C151,-255.5 145,-249.5 145,-243.5"/>
<polyline fill="none" stroke="black" points="145,-243.5 145,-67.5 "/>
<path fill="none" stroke="black" d="M145,-67.5C145,-61.5 151,-55.5 157,-55.5"/>
<text text-anchor="middle" x="207.5" y="-238.9" font-family="Times Roman,serif" font-size="14.00">MembersController</text>
<polyline fill="none" stroke="black" points="145,-228.5 270,-228.5 "/>
<text text-anchor="start" x="153" y="-211.9" font-family="Times Roman,serif" font-size="14.00">create</text>
<text text-anchor="start" x="153" y="-192.9" font-family="Times Roman,serif" font-size="14.00">destroy</text>
<text text-anchor="start" x="153" y="-173.9" font-family="Times Roman,serif" font-size="14.00">edit</text>
<text text-anchor="start" x="153" y="-154.9" font-family="Times Roman,serif" font-size="14.00">index</text>
<text text-anchor="start" x="153" y="-135.9" font-family="Times Roman,serif" font-size="14.00">new</text>
<text text-anchor="start" x="153" y="-116.9" font-family="Times Roman,serif" font-size="14.00">update</text>
<polyline fill="none" stroke="black" points="145,-106.5 270,-106.5 "/>
<polyline fill="none" stroke="black" points="145,-82.5 270,-82.5 "/>
<text text-anchor="start" x="153" y="-65.9" font-family="Times Roman,serif" font-size="14.00">_layout</text>
</g>
<!-- ApplicationController -->
<g id="node3" class="node"><title>ApplicationController</title>
<polyline fill="none" stroke="black" points="13,-289.5 193,-289.5 "/>
<path fill="none" stroke="black" d="M193,-289.5C199,-289.5 205,-295.5 205,-301.5"/>
<polyline fill="none" stroke="black" points="205,-301.5 205,-382.5 "/>
<path fill="none" stroke="black" d="M205,-382.5C205,-388.5 199,-394.5 193,-394.5"/>
<polyline fill="none" stroke="black" points="193,-394.5 13,-394.5 "/>
<path fill="none" stroke="black" d="M13,-394.5C7,-394.5 1,-388.5 1,-382.5"/>
<polyline fill="none" stroke="black" points="1,-382.5 1,-301.5 "/>
<path fill="none" stroke="black" d="M1,-301.5C1,-295.5 7,-289.5 13,-289.5"/>
<text text-anchor="middle" x="103" y="-377.9" font-family="Times Roman,serif" font-size="14.00">ApplicationController</text>
<polyline fill="none" stroke="black" points="1,-367.5 205,-367.5 "/>
<text text-anchor="start" x="9" y="-350.9" font-family="Times Roman,serif" font-size="14.00">_one_time_conditions_valid_262?</text>
<polyline fill="none" stroke="black" points="1,-340.5 205,-340.5 "/>
<polyline fill="none" stroke="black" points="1,-316.5 205,-316.5 "/>
<text text-anchor="start" x="9" y="-299.9" font-family="Times Roman,serif" font-size="14.00">_layout</text>
</g>
<!-- TeamsController -->
<g id="node4" class="node"><title>TeamsController</title>
<polyline fill="none" stroke="black" points="13,-1.5 98,-1.5 "/>
<path fill="none" stroke="black" d="M98,-1.5C104,-1.5 110,-7.5 110,-13.5"/>
<polyline fill="none" stroke="black" points="110,-13.5 110,-208.5 "/>
<path fill="none" stroke="black" d="M110,-208.5C110,-214.5 104,-220.5 98,-220.5"/>
<polyline fill="none" stroke="black" points="98,-220.5 13,-220.5 "/>
<path fill="none" stroke="black" d="M13,-220.5C7,-220.5 1,-214.5 1,-208.5"/>
<polyline fill="none" stroke="black" points="1,-208.5 1,-13.5 "/>
<path fill="none" stroke="black" d="M1,-13.5C1,-7.5 7,-1.5 13,-1.5"/>
<text text-anchor="middle" x="55.5" y="-203.9" font-family="Times Roman,serif" font-size="14.00">TeamsController</text>
<polyline fill="none" stroke="black" points="1,-193.5 110,-193.5 "/>
<text text-anchor="start" x="9" y="-176.9" font-family="Times Roman,serif" font-size="14.00">create</text>
<text text-anchor="start" x="9" y="-157.9" font-family="Times Roman,serif" font-size="14.00">destroy</text>
<text text-anchor="start" x="9" y="-138.9" font-family="Times Roman,serif" font-size="14.00">edit</text>
<text text-anchor="start" x="9" y="-119.9" font-family="Times Roman,serif" font-size="14.00">index</text>
<text text-anchor="start" x="9" y="-100.9" font-family="Times Roman,serif" font-size="14.00">new</text>
<text text-anchor="start" x="9" y="-81.9" font-family="Times Roman,serif" font-size="14.00">show</text>
<text text-anchor="start" x="9" y="-62.9" font-family="Times Roman,serif" font-size="14.00">update</text>
<polyline fill="none" stroke="black" points="1,-52.5 110,-52.5 "/>
<polyline fill="none" stroke="black" points="1,-28.5 110,-28.5 "/>
<text text-anchor="start" x="9" y="-11.9" font-family="Times Roman,serif" font-size="14.00">_layout</text>
</g>
</g>
</svg>
