<?xml version="1.0" encoding="UTF-8" standalone="no"?>
<!DOCTYPE svg PUBLIC "-//W3C//DTD SVG 1.1//EN"
 "http://www.w3.org/Graphics/SVG/1.1/DTD/svg11.dtd">
<!-- Generated by graphviz version 2.26.0 (20091210.2329)
 -->
<!-- Title: models_diagram Pages: 1 -->
<svg width="1049pt" height="590pt"
 viewBox="0.00 0.00 1049.00 590.00" xmlns="http://www.w3.org/2000/svg" xmlns:xlink="http://www.w3.org/1999/xlink">
<g id="graph1" class="graph" transform="scale(1 1) rotate(0) translate(4 586)">
<title>models_diagram</title>
<polygon fill="white" stroke="white" points="-4,5 -4,-586 1046,-586 1046,5 -4,5"/>
<!-- _diagram_info -->
<g id="node1" class="node"><title>_diagram_info</title>
<text text-anchor="start" x="8" y="-546.8" font-family="Times Roman,serif" font-size="13.00">Models diagram</text>
<text text-anchor="start" x="8" y="-529.8" font-family="Times Roman,serif" font-size="13.00">Date: Apr 25 2012 &#45; 15:28</text>
<text text-anchor="start" x="8" y="-512.8" font-family="Times Roman,serif" font-size="13.00">Migration version: 20120425041903</text>
<text text-anchor="start" x="8" y="-495.8" font-family="Times Roman,serif" font-size="13.00">Generated by RailRoady 1.0.7</text>
<text text-anchor="start" x="8" y="-478.8" font-family="Times Roman,serif" font-size="13.00">http://railroady.prestonlee.com</text>
</g>
<!-- GameMember -->
<g id="node2" class="node"><title>GameMember</title>
<polyline fill="none" stroke="black" points="631.5,-0.5 762.5,-0.5 "/>
<path fill="none" stroke="black" d="M762.5,-0.5C768.5,-0.5 774.5,-6.5 774.5,-12.5"/>
<polyline fill="none" stroke="black" points="774.5,-12.5 774.5,-137.5 "/>
<path fill="none" stroke="black" d="M774.5,-137.5C774.5,-143.5 768.5,-149.5 762.5,-149.5"/>
<polyline fill="none" stroke="black" points="762.5,-149.5 631.5,-149.5 "/>
<path fill="none" stroke="black" d="M631.5,-149.5C625.5,-149.5 619.5,-143.5 619.5,-137.5"/>
<polyline fill="none" stroke="black" points="619.5,-137.5 619.5,-12.5 "/>
<path fill="none" stroke="black" d="M619.5,-12.5C619.5,-6.5 625.5,-0.5 631.5,-0.5"/>
<text text-anchor="middle" x="697" y="-132.9" font-family="Times Roman,serif" font-size="14.00">GameMember</text>
<polyline fill="none" stroke="black" points="619.5,-122.5 774.5,-122.5 "/>
<text text-anchor="start" x="627.5" y="-105.9" font-family="Times Roman,serif" font-size="14.00">starting_status :integer</text>
<text text-anchor="start" x="627.5" y="-86.9" font-family="Times Roman,serif" font-size="14.00">created_at :datetime</text>
<text text-anchor="start" x="627.5" y="-67.9" font-family="Times Roman,serif" font-size="14.00">updated_at :datetime</text>
<text text-anchor="start" x="627.5" y="-48.9" font-family="Times Roman,serif" font-size="14.00">first_name :string</text>
<text text-anchor="start" x="627.5" y="-29.9" font-family="Times Roman,serif" font-size="14.00">last_name :string</text>
<text text-anchor="start" x="627.5" y="-10.9" font-family="Times Roman,serif" font-size="14.00">uniform_number :integer</text>
</g>
<!-- Team -->
<g id="node3" class="node"><title>Team</title>
<polyline fill="none" stroke="black" points="402.5,-460.5 509.5,-460.5 "/>
<path fill="none" stroke="black" d="M509.5,-460.5C515.5,-460.5 521.5,-466.5 521.5,-472.5"/>
<polyline fill="none" stroke="black" points="521.5,-472.5 521.5,-559.5 "/>
<path fill="none" stroke="black" d="M521.5,-559.5C521.5,-565.5 515.5,-571.5 509.5,-571.5"/>
<polyline fill="none" stroke="black" points="509.5,-571.5 402.5,-571.5 "/>
<path fill="none" stroke="black" d="M402.5,-571.5C396.5,-571.5 390.5,-565.5 390.5,-559.5"/>
<polyline fill="none" stroke="black" points="390.5,-559.5 390.5,-472.5 "/>
<path fill="none" stroke="black" d="M390.5,-472.5C390.5,-466.5 396.5,-460.5 402.5,-460.5"/>
<text text-anchor="middle" x="456" y="-554.9" font-family="Times Roman,serif" font-size="14.00">Team</text>
<polyline fill="none" stroke="black" points="390.5,-544.5 521.5,-544.5 "/>
<text text-anchor="start" x="398.5" y="-527.9" font-family="Times Roman,serif" font-size="14.00">name :string</text>
<text text-anchor="start" x="398.5" y="-508.9" font-family="Times Roman,serif" font-size="14.00">created_at :datetime</text>
<text text-anchor="start" x="398.5" y="-489.9" font-family="Times Roman,serif" font-size="14.00">updated_at :datetime</text>
<text text-anchor="start" x="398.5" y="-470.9" font-family="Times Roman,serif" font-size="14.00">deleted_at :datetime</text>
</g>
<!-- TeamMember -->
<g id="node5" class="node"><title>TeamMember</title>
<polyline fill="none" stroke="black" points="262.5,-29 369.5,-29 "/>
<path fill="none" stroke="black" d="M369.5,-29C375.5,-29 381.5,-35 381.5,-41"/>
<polyline fill="none" stroke="black" points="381.5,-41 381.5,-109 "/>
<path fill="none" stroke="black" d="M381.5,-109C381.5,-115 375.5,-121 369.5,-121"/>
<polyline fill="none" stroke="black" points="369.5,-121 262.5,-121 "/>
<path fill="none" stroke="black" d="M262.5,-121C256.5,-121 250.5,-115 250.5,-109"/>
<polyline fill="none" stroke="black" points="250.5,-109 250.5,-41 "/>
<path fill="none" stroke="black" d="M250.5,-41C250.5,-35 256.5,-29 262.5,-29"/>
<text text-anchor="middle" x="316" y="-104.4" font-family="Times Roman,serif" font-size="14.00">TeamMember</text>
<polyline fill="none" stroke="black" points="250.5,-94 381.5,-94 "/>
<text text-anchor="start" x="258.5" y="-77.4" font-family="Times Roman,serif" font-size="14.00">created_at :datetime</text>
<text text-anchor="start" x="258.5" y="-58.4" font-family="Times Roman,serif" font-size="14.00">updated_at :datetime</text>
<text text-anchor="start" x="258.5" y="-39.4" font-family="Times Roman,serif" font-size="14.00">deleted_at :datetime</text>
</g>
<!-- Team&#45;&gt;TeamMember -->
<g id="edge2" class="edge"><title>Team&#45;&gt;TeamMember</title>
<path fill="none" stroke="#9a5e84" d="M383.245,-457.292C379.178,-454.713 375.083,-452.263 371,-450 350.708,-438.752 337.819,-448.972 322,-432 246.51,-351.009 273.438,-209.251 296.617,-130.945"/>
<ellipse fill="none" stroke="#9a5e84" cx="386.706" cy="-459.554" rx="4.00002" ry="4.00002"/>
<polygon fill="#9a5e84" stroke="#9a5e84" points="296.654,-130.823 303.868,-122.564 298.108,-126.04 299.562,-121.256 299.562,-121.256 299.562,-121.256 298.108,-126.04 295.257,-119.947 296.654,-130.823 296.654,-130.823"/>
</g>
<!-- GameTeam -->
<g id="node6" class="node"><title>GameTeam</title>
<polyline fill="none" stroke="black" points="687,-244.5 809,-244.5 "/>
<path fill="none" stroke="black" d="M809,-244.5C815,-244.5 821,-250.5 821,-256.5"/>
<polyline fill="none" stroke="black" points="821,-256.5 821,-343.5 "/>
<path fill="none" stroke="black" d="M821,-343.5C821,-349.5 815,-355.5 809,-355.5"/>
<polyline fill="none" stroke="black" points="809,-355.5 687,-355.5 "/>
<path fill="none" stroke="black" d="M687,-355.5C681,-355.5 675,-349.5 675,-343.5"/>
<polyline fill="none" stroke="black" points="675,-343.5 675,-256.5 "/>
<path fill="none" stroke="black" d="M675,-256.5C675,-250.5 681,-244.5 687,-244.5"/>
<text text-anchor="middle" x="748" y="-338.9" font-family="Times Roman,serif" font-size="14.00">GameTeam</text>
<polyline fill="none" stroke="black" points="675,-328.5 821,-328.5 "/>
<text text-anchor="start" x="683" y="-311.9" font-family="Times Roman,serif" font-size="14.00">home_or_away :integer</text>
<text text-anchor="start" x="683" y="-292.9" font-family="Times Roman,serif" font-size="14.00">created_at :datetime</text>
<text text-anchor="start" x="683" y="-273.9" font-family="Times Roman,serif" font-size="14.00">updated_at :datetime</text>
<text text-anchor="start" x="683" y="-254.9" font-family="Times Roman,serif" font-size="14.00">name :string</text>
</g>
<!-- Team&#45;&gt;GameTeam -->
<g id="edge10" class="edge"><title>Team&#45;&gt;GameTeam</title>
<path fill="none" stroke="#50f5fa" d="M528.189,-460.927C549.781,-444.849 573.659,-427.453 596,-412 608.167,-403.584 611.874,-402.475 624,-394 638.572,-383.815 653.847,-372.655 668.501,-361.693"/>
<ellipse fill="none" stroke="#50f5fa" cx="524.771" cy="-463.478" rx="4.00002" ry="4.00002"/>
<polygon fill="#50f5fa" stroke="#50f5fa" points="668.574,-361.638 679.272,-359.229 672.572,-358.635 676.569,-355.631 676.569,-355.631 676.569,-355.631 672.572,-358.635 673.866,-352.033 668.574,-361.638 668.574,-361.638"/>
<text text-anchor="middle" x="632.5" y="-418.9" font-family="Times Roman,serif" font-size="14.00">home_games</text>
</g>
<!-- Team&#45;&gt;GameTeam -->
<g id="edge12" class="edge"><title>Team&#45;&gt;GameTeam</title>
<path fill="none" stroke="#e39c7a" d="M529.751,-499.746C573.946,-487.088 629.11,-465.843 669,-432 690.399,-413.845 707.541,-388.355 720.315,-364.61"/>
<ellipse fill="none" stroke="#e39c7a" cx="525.768" cy="-500.858" rx="4.00001" ry="4.00001"/>
<polygon fill="#e39c7a" stroke="#e39c7a" points="720.38,-364.485 728.989,-357.692 722.689,-360.05 724.997,-355.614 724.997,-355.614 724.997,-355.614 722.689,-360.05 721.005,-353.537 720.38,-364.485 720.38,-364.485"/>
<text text-anchor="middle" x="721.5" y="-418.9" font-family="Times Roman,serif" font-size="14.00">away_games</text>
</g>
<!-- GameProgress -->
<g id="node8" class="node"><title>GameProgress</title>
<polyline fill="none" stroke="black" points="462.5,-29 569.5,-29 "/>
<path fill="none" stroke="black" d="M569.5,-29C575.5,-29 581.5,-35 581.5,-41"/>
<polyline fill="none" stroke="black" points="581.5,-41 581.5,-109 "/>
<path fill="none" stroke="black" d="M581.5,-109C581.5,-115 575.5,-121 569.5,-121"/>
<polyline fill="none" stroke="black" points="569.5,-121 462.5,-121 "/>
<path fill="none" stroke="black" d="M462.5,-121C456.5,-121 450.5,-115 450.5,-109"/>
<polyline fill="none" stroke="black" points="450.5,-109 450.5,-41 "/>
<path fill="none" stroke="black" d="M450.5,-41C450.5,-35 456.5,-29 462.5,-29"/>
<text text-anchor="middle" x="516" y="-104.4" font-family="Times Roman,serif" font-size="14.00">GameProgress</text>
<polyline fill="none" stroke="black" points="450.5,-94 581.5,-94 "/>
<text text-anchor="start" x="458.5" y="-77.4" font-family="Times Roman,serif" font-size="14.00">half :integer</text>
<text text-anchor="start" x="458.5" y="-58.4" font-family="Times Roman,serif" font-size="14.00">created_at :datetime</text>
<text text-anchor="start" x="458.5" y="-39.4" font-family="Times Roman,serif" font-size="14.00">updated_at :datetime</text>
</g>
<!-- Team&#45;&gt;GameProgress -->
<g id="edge14" class="edge"><title>Team&#45;&gt;GameProgress</title>
<path fill="none" stroke="#0bfb66" d="M497.087,-452.962C500.244,-446.089 502.982,-439.031 505,-432 534.505,-329.175 529.239,-202.812 522.667,-131.331"/>
<ellipse fill="none" stroke="#0bfb66" cx="495.256" cy="-456.739" rx="4.00002" ry="4.00002"/>
<polygon fill="#0bfb66" stroke="#0bfb66" points="522.649,-131.146 526.171,-120.761 522.171,-126.169 521.692,-121.192 521.692,-121.192 521.692,-121.192 522.171,-126.169 517.212,-121.623 522.649,-131.146 522.649,-131.146"/>
</g>
<!-- Member -->
<g id="node9" class="node"><title>Member</title>
<polyline fill="none" stroke="black" points="331.5,-206.5 462.5,-206.5 "/>
<path fill="none" stroke="black" d="M462.5,-206.5C468.5,-206.5 474.5,-212.5 474.5,-218.5"/>
<polyline fill="none" stroke="black" points="474.5,-218.5 474.5,-381.5 "/>
<path fill="none" stroke="black" d="M474.5,-381.5C474.5,-387.5 468.5,-393.5 462.5,-393.5"/>
<polyline fill="none" stroke="black" points="462.5,-393.5 331.5,-393.5 "/>
<path fill="none" stroke="black" d="M331.5,-393.5C325.5,-393.5 319.5,-387.5 319.5,-381.5"/>
<polyline fill="none" stroke="black" points="319.5,-381.5 319.5,-218.5 "/>
<path fill="none" stroke="black" d="M319.5,-218.5C319.5,-212.5 325.5,-206.5 331.5,-206.5"/>
<text text-anchor="middle" x="397" y="-376.9" font-family="Times Roman,serif" font-size="14.00">Member</text>
<polyline fill="none" stroke="black" points="319.5,-366.5 474.5,-366.5 "/>
<text text-anchor="start" x="327.5" y="-349.9" font-family="Times Roman,serif" font-size="14.00">last_name :string</text>
<text text-anchor="start" x="327.5" y="-330.9" font-family="Times Roman,serif" font-size="14.00">first_name :string</text>
<text text-anchor="start" x="327.5" y="-311.9" font-family="Times Roman,serif" font-size="14.00">player_number :string</text>
<text text-anchor="start" x="327.5" y="-292.9" font-family="Times Roman,serif" font-size="14.00">created_at :datetime</text>
<text text-anchor="start" x="327.5" y="-273.9" font-family="Times Roman,serif" font-size="14.00">updated_at :datetime</text>
<text text-anchor="start" x="327.5" y="-254.9" font-family="Times Roman,serif" font-size="14.00">member_type :integer</text>
<text text-anchor="start" x="327.5" y="-235.9" font-family="Times Roman,serif" font-size="14.00">uniform_number :integer</text>
<text text-anchor="start" x="327.5" y="-216.9" font-family="Times Roman,serif" font-size="14.00">deleted_at :datetime</text>
</g>
<!-- Team&#45;&gt;Member -->
<g id="edge4" class="edge"><title>Team&#45;&gt;Member</title>
<path fill="none" stroke="#cbb1dc" d="M384.769,-451.801C380.866,-445.444 377.52,-438.812 375,-432 371.679,-423.024 369.78,-413.483 368.966,-403.797"/>
<polygon fill="#cbb1dc" stroke="#cbb1dc" points="384.875,-451.961 386.662,-462.78 387.642,-456.125 390.41,-460.289 390.41,-460.289 390.41,-460.289 387.642,-456.125 394.158,-457.799 384.875,-451.961 384.875,-451.961"/>
<polygon fill="#cbb1dc" stroke="#cbb1dc" points="368.959,-403.658 372.991,-393.46 368.728,-398.663 368.496,-393.669 368.496,-393.669 368.496,-393.669 368.728,-398.663 364.001,-393.877 368.959,-403.658 368.959,-403.658"/>
</g>
<!-- Team&#45;&gt;Member -->
<g id="edge6" class="edge"><title>Team&#45;&gt;Member</title>
<path fill="none" stroke="#038898" d="M411.711,-451.321C408.683,-444.981 406.033,-438.488 404,-432 401.174,-422.979 399.075,-413.444 397.545,-403.794"/>
<polygon fill="#038898" stroke="#038898" points="411.841,-451.577 412.38,-462.53 414.115,-456.03 416.388,-460.484 416.388,-460.484 416.388,-460.484 414.115,-456.03 420.396,-458.437 411.841,-451.577 411.841,-451.577"/>
<polygon fill="#038898" stroke="#038898" points="397.52,-403.617 400.605,-393.094 396.834,-398.664 396.148,-393.712 396.148,-393.712 396.148,-393.712 396.834,-398.664 391.69,-394.329 397.52,-403.617 397.52,-403.617"/>
<text text-anchor="middle" x="424" y="-418.9" font-family="Times Roman,serif" font-size="14.00">players</text>
</g>
<!-- Team&#45;&gt;Member -->
<g id="edge8" class="edge"><title>Team&#45;&gt;Member</title>
<path fill="none" stroke="#5cafaa" d="M451.263,-450.256C449.542,-437.446 447.197,-424.209 444,-412 443.261,-409.179 442.465,-406.336 441.62,-403.482"/>
<polygon fill="#5cafaa" stroke="#5cafaa" points="451.291,-450.484 448.047,-460.959 451.902,-455.446 452.514,-460.409 452.514,-460.409 452.514,-460.409 451.902,-455.446 456.98,-459.859 451.291,-450.484 451.291,-450.484"/>
<polygon fill="#5cafaa" stroke="#5cafaa" points="441.561,-403.291 442.865,-392.403 440.066,-398.52 438.571,-393.749 438.571,-393.749 438.571,-393.749 440.066,-398.52 434.277,-395.094 441.561,-403.291 441.561,-403.291"/>
<text text-anchor="middle" x="474.5" y="-418.9" font-family="Times Roman,serif" font-size="14.00">managers</text>
</g>
<!-- Position -->
<g id="node4" class="node"><title>Position</title>
<polyline fill="none" stroke="black" points="243.5,-470 350.5,-470 "/>
<path fill="none" stroke="black" d="M350.5,-470C356.5,-470 362.5,-476 362.5,-482"/>
<polyline fill="none" stroke="black" points="362.5,-482 362.5,-550 "/>
<path fill="none" stroke="black" d="M362.5,-550C362.5,-556 356.5,-562 350.5,-562"/>
<polyline fill="none" stroke="black" points="350.5,-562 243.5,-562 "/>
<path fill="none" stroke="black" d="M243.5,-562C237.5,-562 231.5,-556 231.5,-550"/>
<polyline fill="none" stroke="black" points="231.5,-550 231.5,-482 "/>
<path fill="none" stroke="black" d="M231.5,-482C231.5,-476 237.5,-470 243.5,-470"/>
<text text-anchor="middle" x="297" y="-545.4" font-family="Times Roman,serif" font-size="14.00">Position</text>
<polyline fill="none" stroke="black" points="231.5,-535 362.5,-535 "/>
<text text-anchor="start" x="239.5" y="-518.4" font-family="Times Roman,serif" font-size="14.00">name :string</text>
<text text-anchor="start" x="239.5" y="-499.4" font-family="Times Roman,serif" font-size="14.00">created_at :datetime</text>
<text text-anchor="start" x="239.5" y="-480.4" font-family="Times Roman,serif" font-size="14.00">updated_at :datetime</text>
</g>
<!-- Position&#45;&gt;Member -->
<g id="edge16" class="edge"><title>Position&#45;&gt;Member</title>
<path fill="none" stroke="#7654ba" d="M314.943,-461.966C320.826,-445.694 327.733,-427.932 335,-412 336.384,-408.967 337.818,-405.905 339.292,-402.827"/>
<ellipse fill="none" stroke="#7654ba" cx="313.485" cy="-466.053" rx="4.00001" ry="4.00001"/>
<polygon fill="#7654ba" stroke="#7654ba" points="339.43,-402.546 347.867,-395.541 341.627,-398.054 343.824,-393.563 343.824,-393.563 343.824,-393.563 341.627,-398.054 339.782,-391.585 339.43,-402.546 339.43,-402.546"/>
<text text-anchor="middle" x="355" y="-418.9" font-family="Times Roman,serif" font-size="14.00">players</text>
</g>
<!-- GameTeam&#45;&gt;GameMember -->
<g id="edge18" class="edge"><title>GameTeam&#45;&gt;GameMember</title>
<path fill="none" stroke="#ddf808" d="M733.609,-236.512C728.193,-212.617 721.946,-185.054 716.163,-159.541"/>
<ellipse fill="none" stroke="#ddf808" cx="734.509" cy="-240.481" rx="4.00001" ry="4.00001"/>
<polygon fill="#ddf808" stroke="#ddf808" points="716.098,-159.254 718.276,-148.507 714.992,-154.378 713.887,-149.502 713.887,-149.502 713.887,-149.502 714.992,-154.378 709.498,-150.497 716.098,-159.254 716.098,-159.254"/>
<text text-anchor="middle" x="748" y="-174.9" font-family="Times Roman,serif" font-size="14.00">members</text>
</g>
<!-- Game -->
<g id="node7" class="node"><title>Game</title>
<polyline fill="none" stroke="black" points="774.5,-451 881.5,-451 "/>
<path fill="none" stroke="black" d="M881.5,-451C887.5,-451 893.5,-457 893.5,-463"/>
<polyline fill="none" stroke="black" points="893.5,-463 893.5,-569 "/>
<path fill="none" stroke="black" d="M893.5,-569C893.5,-575 887.5,-581 881.5,-581"/>
<polyline fill="none" stroke="black" points="881.5,-581 774.5,-581 "/>
<path fill="none" stroke="black" d="M774.5,-581C768.5,-581 762.5,-575 762.5,-569"/>
<polyline fill="none" stroke="black" points="762.5,-569 762.5,-463 "/>
<path fill="none" stroke="black" d="M762.5,-463C762.5,-457 768.5,-451 774.5,-451"/>
<text text-anchor="middle" x="828" y="-564.4" font-family="Times Roman,serif" font-size="14.00">Game</text>
<polyline fill="none" stroke="black" points="762.5,-554 893.5,-554 "/>
<text text-anchor="start" x="770.5" y="-537.4" font-family="Times Roman,serif" font-size="14.00">created_at :datetime</text>
<text text-anchor="start" x="770.5" y="-518.4" font-family="Times Roman,serif" font-size="14.00">updated_at :datetime</text>
<text text-anchor="start" x="770.5" y="-499.4" font-family="Times Roman,serif" font-size="14.00">the_date :date</text>
<text text-anchor="start" x="770.5" y="-480.4" font-family="Times Roman,serif" font-size="14.00">start_time :time</text>
<text text-anchor="start" x="770.5" y="-461.4" font-family="Times Roman,serif" font-size="14.00">end_time :time</text>
</g>
<!-- Game&#45;&gt;GameTeam -->
<g id="edge22" class="edge"><title>Game&#45;&gt;GameTeam</title>
<path fill="none" stroke="#c157dc" d="M892.108,-443.115C895.058,-432.819 894.97,-422.249 890,-412 876.482,-384.12 852.285,-361.092 827.652,-343.318"/>
<ellipse fill="none" stroke="#c157dc" cx="890.648" cy="-447.162" rx="4.00001" ry="4.00001"/>
<ellipse fill="#c157dc" stroke="#c157dc" cx="824.319" cy="-340.978" rx="4.00002" ry="4.00002"/>
<text text-anchor="middle" x="926.5" y="-418.9" font-family="Times Roman,serif" font-size="14.00">home_team</text>
</g>
<!-- Game&#45;&gt;GameTeam -->
<g id="edge24" class="edge"><title>Game&#45;&gt;GameTeam</title>
<path fill="none" stroke="#45e01c" d="M786.832,-443.396C785.114,-439.582 783.49,-435.769 782,-432 773.397,-410.244 766.369,-385.607 760.981,-363.557"/>
<ellipse fill="none" stroke="#45e01c" cx="788.553" cy="-447.094" rx="4.00002" ry="4.00002"/>
<ellipse fill="#45e01c" stroke="#45e01c" cx="760" cy="-359.452" rx="4.00001" ry="4.00001"/>
<text text-anchor="middle" x="813.5" y="-418.9" font-family="Times Roman,serif" font-size="14.00">away_team</text>
</g>
<!-- Game&#45;&gt;GameTeam -->
<g id="edge20" class="edge"><title>Game&#45;&gt;GameTeam</title>
<path fill="none" stroke="#bc7513" d="M853.169,-442.925C853.814,-432.384 852.765,-421.797 849,-412 842.303,-394.575 831.503,-378.168 819.404,-363.565"/>
<ellipse fill="none" stroke="#bc7513" cx="852.762" cy="-446.983" rx="4" ry="4"/>
<polygon fill="#bc7513" stroke="#bc7513" points="819.1,-363.213 815.973,-352.702 815.833,-359.427 812.566,-355.642 812.566,-355.642 812.566,-355.642 815.833,-359.427 809.16,-358.582 819.1,-363.213 819.1,-363.213"/>
<text text-anchor="middle" x="869.5" y="-418.9" font-family="Times Roman,serif" font-size="14.00">teams</text>
</g>
<!-- Game&#45;&gt;GameProgress -->
<g id="edge26" class="edge"><title>Game&#45;&gt;GameProgress</title>
<path fill="none" stroke="#b1c5a9" d="M754.597,-500.565C688.782,-485.184 599.124,-459.888 576,-432 500.413,-340.842 562.834,-284.197 540,-168 537.639,-155.984 534.657,-143.209 531.606,-131.099"/>
<ellipse fill="none" stroke="#b1c5a9" cx="758.602" cy="-501.491" rx="4.00001" ry="4.00001"/>
<polygon fill="#b1c5a9" stroke="#b1c5a9" points="531.529,-130.799 533.396,-119.994 530.283,-125.957 529.038,-121.115 529.038,-121.115 529.038,-121.115 530.283,-125.957 524.68,-122.235 531.529,-130.799 531.529,-130.799"/>
<text text-anchor="middle" x="578" y="-296.9" font-family="Times Roman,serif" font-size="14.00">progresses</text>
</g>
<!-- Member&#45;&gt;GameMember -->
<g id="edge32" class="edge"><title>Member&#45;&gt;GameMember</title>
<path fill="none" stroke="#f998df" d="M481.248,-236.814C521.884,-206.337 570.547,-169.84 611.364,-139.227"/>
<ellipse fill="none" stroke="#f998df" cx="477.848" cy="-239.364" rx="4.00002" ry="4.00002"/>
<polygon fill="#f998df" stroke="#f998df" points="611.418,-139.187 622.118,-136.787 615.418,-136.187 619.418,-133.187 619.418,-133.187 619.418,-133.187 615.418,-136.187 616.718,-129.587 611.418,-139.187 611.418,-139.187"/>
</g>
<!-- Member&#45;&gt;Team -->
<g id="edge30" class="edge"><title>Member&#45;&gt;Team</title>
<path fill="none" stroke="#8639aa" d="M386.732,-401.96C387.545,-412.275 389.47,-422.457 393,-432 395.749,-439.431 399.481,-446.648 403.771,-453.527"/>
<ellipse fill="none" stroke="#8639aa" cx="386.512" cy="-397.663" rx="4" ry="4"/>
<ellipse fill="#8639aa" stroke="#8639aa" cx="406.029" cy="-456.95" rx="4.00002" ry="4.00002"/>
</g>
<!-- Member&#45;&gt;TeamMember -->
<g id="edge28" class="edge"><title>Member&#45;&gt;TeamMember</title>
<path fill="none" stroke="#41bcf6" d="M360.492,-198.59C351.799,-174.443 342.859,-149.607 335.293,-128.592"/>
<ellipse fill="none" stroke="#41bcf6" cx="361.88" cy="-202.445" rx="4.00001" ry="4.00001"/>
<ellipse fill="#41bcf6" stroke="#41bcf6" cx="333.926" cy="-124.794" rx="4.00001" ry="4.00001"/>
</g>
<!-- Member&#45;&gt;GameProgress -->
<g id="edge34" class="edge"><title>Member&#45;&gt;GameProgress</title>
<path fill="none" stroke="#f783f6" d="M450.451,-198.938C462.992,-175.225 475.895,-150.828 486.901,-130.019"/>
<ellipse fill="none" stroke="#f783f6" cx="448.475" cy="-202.673" rx="4.00002" ry="4.00002"/>
<polygon fill="#f783f6" stroke="#f783f6" points="486.98,-129.87 495.633,-123.134 489.317,-125.45 491.655,-121.03 491.655,-121.03 491.655,-121.03 489.317,-125.45 487.677,-118.927 486.98,-129.87 486.98,-129.87"/>
</g>
<!-- Foul -->
<g id="node10" class="node"><title>Foul</title>
<polyline fill="none" stroke="black" points="922.5,-451 1029.5,-451 "/>
<path fill="none" stroke="black" d="M1029.5,-451C1035.5,-451 1041.5,-457 1041.5,-463"/>
<polyline fill="none" stroke="black" points="1041.5,-463 1041.5,-569 "/>
<path fill="none" stroke="black" d="M1041.5,-569C1041.5,-575 1035.5,-581 1029.5,-581"/>
<polyline fill="none" stroke="black" points="1029.5,-581 922.5,-581 "/>
<path fill="none" stroke="black" d="M922.5,-581C916.5,-581 910.5,-575 910.5,-569"/>
<polyline fill="none" stroke="black" points="910.5,-569 910.5,-463 "/>
<path fill="none" stroke="black" d="M910.5,-463C910.5,-457 916.5,-451 922.5,-451"/>
<text text-anchor="middle" x="976" y="-564.4" font-family="Times Roman,serif" font-size="14.00">Foul</text>
<polyline fill="none" stroke="black" points="910.5,-554 1041.5,-554 "/>
<text text-anchor="start" x="918.5" y="-537.4" font-family="Times Roman,serif" font-size="14.00">symbol :string</text>
<text text-anchor="start" x="918.5" y="-518.4" font-family="Times Roman,serif" font-size="14.00">description :string</text>
<text text-anchor="start" x="918.5" y="-499.4" font-family="Times Roman,serif" font-size="14.00">foul_type :integer</text>
<text text-anchor="start" x="918.5" y="-480.4" font-family="Times Roman,serif" font-size="14.00">created_at :datetime</text>
<text text-anchor="start" x="918.5" y="-461.4" font-family="Times Roman,serif" font-size="14.00">updated_at :datetime</text>
</g>
</g>
</svg>
