<?xml version="1.0" encoding="UTF-8" standalone="no"?>
<!DOCTYPE svg PUBLIC "-//W3C//DTD SVG 1.1//EN"
 "http://www.w3.org/Graphics/SVG/1.1/DTD/svg11.dtd">
<!-- Generated by graphviz version 2.26.0 (20091210.2329)
 -->
<!-- Title: models_diagram Pages: 1 -->
<svg width="952pt" height="290pt"
 viewBox="0.00 0.00 952.00 290.00" xmlns="http://www.w3.org/2000/svg" xmlns:xlink="http://www.w3.org/1999/xlink">
<g id="graph1" class="graph" transform="scale(1 1) rotate(0) translate(4 286)">
<title>models_diagram</title>
<polygon fill="white" stroke="white" points="-4,5 -4,-286 949,-286 949,5 -4,5"/>
<!-- _diagram_info -->
<g id="node1" class="node"><title>_diagram_info</title>
<text text-anchor="start" x="8" y="-265.8" font-family="Times Roman,serif" font-size="13.00">Models diagram</text>
<text text-anchor="start" x="8" y="-248.8" font-family="Times Roman,serif" font-size="13.00">Date: Apr 25 2012 &#45; 15:28</text>
<text text-anchor="start" x="8" y="-231.8" font-family="Times Roman,serif" font-size="13.00">Migration version: 20120425041903</text>
<text text-anchor="start" x="8" y="-214.8" font-family="Times Roman,serif" font-size="13.00">Generated by RailRoady 1.0.7</text>
<text text-anchor="start" x="8" y="-197.8" font-family="Times Roman,serif" font-size="13.00">http://railroady.prestonlee.com</text>
</g>
<!-- GameMember -->
<g id="node2" class="node"><title>GameMember</title>
<ellipse fill="none" stroke="black" cx="674" cy="-19" rx="68.0887" ry="19.0919"/>
<text text-anchor="middle" x="674" y="-15.9" font-family="Times Roman,serif" font-size="14.00">GameMember</text>
</g>
<!-- Team -->
<g id="node3" class="node"><title>Team</title>
<ellipse fill="none" stroke="black" cx="413" cy="-235" rx="33.9411" ry="19.0919"/>
<text text-anchor="middle" x="413" y="-231.9" font-family="Times Roman,serif" font-size="14.00">Team</text>
</g>
<!-- TeamMember -->
<g id="node5" class="node"><title>TeamMember</title>
<ellipse fill="none" stroke="black" cx="295" cy="-19" rx="67.1751" ry="19.0919"/>
<text text-anchor="middle" x="295" y="-15.9" font-family="Times Roman,serif" font-size="14.00">TeamMember</text>
</g>
<!-- Team&#45;&gt;TeamMember -->
<g id="edge2" class="edge"><title>Team&#45;&gt;TeamMember</title>
<path fill="none" stroke="#170ae7" d="M381.231,-217.885C348.349,-200.02 301.421,-174.043 299,-170 276.728,-132.806 281.552,-80.6819 287.765,-48.4197"/>
<ellipse fill="none" stroke="#170ae7" cx="384.909" cy="-219.879" rx="4.00002" ry="4.00002"/>
<polygon fill="#170ae7" stroke="#170ae7" points="287.837,-48.0776 294.293,-39.2134 288.863,-43.1839 289.889,-38.2903 289.889,-38.2903 289.889,-38.2903 288.863,-43.1839 285.484,-37.3671 287.837,-48.0776 287.837,-48.0776"/>
</g>
<!-- GameTeam -->
<g id="node6" class="node"><title>GameTeam</title>
<ellipse fill="none" stroke="black" cx="724" cy="-113" rx="56.7776" ry="19.0919"/>
<text text-anchor="middle" x="724" y="-109.9" font-family="Times Roman,serif" font-size="14.00">GameTeam</text>
</g>
<!-- Team&#45;&gt;GameTeam -->
<g id="edge10" class="edge"><title>Team&#45;&gt;GameTeam</title>
<path fill="none" stroke="#fa3388" d="M443.368,-216.971C476.147,-198.132 530.344,-168.756 580,-150 607.3,-139.688 638.572,-131.268 664.983,-125.08"/>
<ellipse fill="none" stroke="#fa3388" cx="439.772" cy="-219.052" rx="4.00002" ry="4.00002"/>
<polygon fill="#fa3388" stroke="#fa3388" points="665.102,-125.053 675.855,-127.205 669.976,-123.936 674.849,-122.818 674.849,-122.818 674.849,-122.818 669.976,-123.936 673.844,-118.432 665.102,-125.053 665.102,-125.053"/>
<text text-anchor="middle" x="616.5" y="-156.9" font-family="Times Roman,serif" font-size="14.00">home_games</text>
</g>
<!-- Team&#45;&gt;GameTeam -->
<g id="edge12" class="edge"><title>Team&#45;&gt;GameTeam</title>
<path fill="none" stroke="#bc7da7" d="M454.399,-229.325C503.859,-221.324 588.063,-203.775 653,-170 665.318,-163.593 666.211,-158.74 677,-150 682.313,-145.696 688.003,-141.158 693.523,-136.792"/>
<ellipse fill="none" stroke="#bc7da7" cx="450.422" cy="-229.951" rx="4.00001" ry="4.00001"/>
<polygon fill="#bc7da7" stroke="#bc7da7" points="693.572,-136.754 704.212,-134.099 697.499,-133.659 701.427,-130.565 701.427,-130.565 701.427,-130.565 697.499,-133.659 698.642,-127.03 693.572,-136.754 693.572,-136.754"/>
<text text-anchor="middle" x="712.5" y="-156.9" font-family="Times Roman,serif" font-size="14.00">away_games</text>
</g>
<!-- GameProgress -->
<g id="node8" class="node"><title>GameProgress</title>
<ellipse fill="none" stroke="black" cx="500" cy="-19" rx="67.8823" ry="19.0919"/>
<text text-anchor="middle" x="500" y="-15.9" font-family="Times Roman,serif" font-size="14.00">GameProgress</text>
</g>
<!-- Team&#45;&gt;GameProgress -->
<g id="edge14" class="edge"><title>Team&#45;&gt;GameProgress</title>
<path fill="none" stroke="#8eab53" d="M442.249,-215.623C457.022,-204.186 473.736,-188.361 483,-170 502.453,-131.444 503.979,-80.4539 502.55,-48.6971"/>
<ellipse fill="none" stroke="#8eab53" cx="438.837" cy="-218.17" rx="4.00002" ry="4.00002"/>
<polygon fill="#8eab53" stroke="#8eab53" points="502.527,-48.3015 506.439,-38.0569 502.237,-43.3099 501.946,-38.3184 501.946,-38.3184 501.946,-38.3184 502.237,-43.3099 497.454,-38.5798 502.527,-48.3015 502.527,-48.3015"/>
</g>
<!-- Member -->
<g id="node9" class="node"><title>Member</title>
<ellipse fill="none" stroke="black" cx="379" cy="-113" rx="44.7575" ry="19.0919"/>
<text text-anchor="middle" x="379" y="-109.9" font-family="Times Roman,serif" font-size="14.00">Member</text>
</g>
<!-- Team&#45;&gt;Member -->
<g id="edge4" class="edge"><title>Team&#45;&gt;Member</title>
<path fill="none" stroke="#3cfcc1" d="M382.207,-213.64C370.45,-201.926 358.686,-186.46 353,-170 349.586,-160.117 351.531,-149.136 355.688,-139.47"/>
<polygon fill="#3cfcc1" stroke="#3cfcc1" points="382.547,-213.957 386.803,-224.063 386.208,-217.363 389.868,-220.769 389.868,-220.769 389.868,-220.769 386.208,-217.363 392.934,-217.474 382.547,-213.957 382.547,-213.957"/>
<polygon fill="#3cfcc1" stroke="#3cfcc1" points="355.832,-139.195 364.453,-132.418 358.149,-134.764 360.465,-130.333 360.465,-130.333 360.465,-130.333 358.149,-134.764 356.478,-128.248 355.832,-139.195 355.832,-139.195"/>
</g>
<!-- Team&#45;&gt;Member -->
<g id="edge6" class="edge"><title>Team&#45;&gt;Member</title>
<path fill="none" stroke="#296609" d="M397.2,-208.008C391.341,-196.653 385.319,-183.064 382,-170 379.738,-161.095 378.72,-151.163 378.343,-142.117"/>
<polygon fill="#296609" stroke="#296609" points="397.279,-208.155 398.059,-219.093 399.65,-212.557 402.021,-216.959 402.021,-216.959 402.021,-216.959 399.65,-212.557 405.983,-214.826 397.279,-208.155 397.279,-208.155"/>
<polygon fill="#296609" stroke="#296609" points="378.342,-142.017 382.658,-131.936 378.25,-137.018 378.158,-132.018 378.158,-132.018 378.158,-132.018 378.25,-137.018 373.659,-132.101 378.342,-142.017 378.342,-142.017"/>
<text text-anchor="middle" x="402" y="-156.9" font-family="Times Roman,serif" font-size="14.00">players</text>
</g>
<!-- Team&#45;&gt;Member -->
<g id="edge8" class="edge"><title>Team&#45;&gt;Member</title>
<path fill="none" stroke="#2044f9" d="M423.239,-206.245C427.597,-189.185 430.045,-167.536 422,-150 419.639,-144.853 416.169,-140.151 412.207,-135.955"/>
<polygon fill="#2044f9" stroke="#2044f9" points="423.139,-206.592 416.033,-214.944 421.747,-211.394 420.356,-216.197 420.356,-216.197 420.356,-216.197 421.747,-211.394 424.678,-217.449 423.139,-206.592 423.139,-206.592"/>
<polygon fill="#2044f9" stroke="#2044f9" points="412.005,-135.767 407.743,-125.663 408.342,-132.363 404.679,-128.96 404.679,-128.96 404.679,-128.96 408.342,-132.363 401.616,-132.256 412.005,-135.767 412.005,-135.767"/>
<text text-anchor="middle" x="452.5" y="-156.9" font-family="Times Roman,serif" font-size="14.00">managers</text>
</g>
<!-- Position -->
<g id="node4" class="node"><title>Position</title>
<ellipse fill="none" stroke="black" cx="275" cy="-235" rx="43.1335" ry="19.0919"/>
<text text-anchor="middle" x="275" y="-231.9" font-family="Times Roman,serif" font-size="14.00">Position</text>
</g>
<!-- Position&#45;&gt;Member -->
<g id="edge16" class="edge"><title>Position&#45;&gt;Member</title>
<path fill="none" stroke="#ed423d" d="M283.353,-208.022C289.979,-189.988 300.691,-166.612 316,-150 322.439,-143.013 330.503,-136.947 338.691,-131.861"/>
<ellipse fill="none" stroke="#ed423d" cx="281.918" cy="-212.114" rx="4.00001" ry="4.00001"/>
<polygon fill="#ed423d" stroke="#ed423d" points="338.899,-131.741 349.808,-130.625 343.226,-129.236 347.553,-126.73 347.553,-126.73 347.553,-126.73 343.226,-129.236 345.298,-122.836 338.899,-131.741 338.899,-131.741"/>
<text text-anchor="middle" x="336" y="-156.9" font-family="Times Roman,serif" font-size="14.00">players</text>
</g>
<!-- GameTeam&#45;&gt;GameMember -->
<g id="edge18" class="edge"><title>GameTeam&#45;&gt;GameMember</title>
<path fill="none" stroke="#6af390" d="M710.02,-86.7176C703.457,-74.3798 695.628,-59.6607 688.948,-47.1017"/>
<ellipse fill="none" stroke="#6af390" cx="712.003" cy="-90.4462" rx="4.00002" ry="4.00002"/>
<polygon fill="#6af390" stroke="#6af390" points="688.799,-46.8227 688.076,-35.8807 686.451,-42.4084 684.103,-37.994 684.103,-37.994 684.103,-37.994 686.451,-42.4084 680.13,-40.1073 688.799,-46.8227 688.799,-46.8227"/>
<text text-anchor="middle" x="729" y="-62.9" font-family="Times Roman,serif" font-size="14.00">members</text>
</g>
<!-- Game -->
<g id="node7" class="node"><title>Game</title>
<ellipse fill="none" stroke="black" cx="812" cy="-235" rx="34.8574" ry="19.0919"/>
<text text-anchor="middle" x="812" y="-231.9" font-family="Times Roman,serif" font-size="14.00">Game</text>
</g>
<!-- Game&#45;&gt;GameTeam -->
<g id="edge22" class="edge"><title>Game&#45;&gt;GameTeam</title>
<path fill="none" stroke="#d86f7c" d="M833.253,-211.51C840.352,-203.879 848.393,-195.459 856,-188 864.539,-179.627 871.135,-180.924 876,-170 879.616,-161.88 881.492,-156.989 876,-150 864.69,-135.606 823.143,-126.112 786.34,-120.348"/>
<ellipse fill="none" stroke="#d86f7c" cx="830.256" cy="-214.757" rx="4.00002" ry="4.00002"/>
<ellipse fill="#d86f7c" stroke="#d86f7c" cx="782.042" cy="-119.7" rx="4.00001" ry="4.00001"/>
<text text-anchor="middle" x="911.5" y="-156.9" font-family="Times Roman,serif" font-size="14.00">home_team</text>
</g>
<!-- Game&#45;&gt;GameTeam -->
<g id="edge24" class="edge"><title>Game&#45;&gt;GameTeam</title>
<path fill="none" stroke="#f90c5a" d="M794.484,-210.716C779.318,-189.69 757.466,-159.396 742.124,-138.127"/>
<ellipse fill="none" stroke="#f90c5a" cx="796.864" cy="-214.016" rx="4.00002" ry="4.00002"/>
<ellipse fill="#f90c5a" stroke="#f90c5a" cx="739.729" cy="-134.805" rx="4.00002" ry="4.00002"/>
<text text-anchor="middle" x="793.5" y="-156.9" font-family="Times Roman,serif" font-size="14.00">away_team</text>
</g>
<!-- Game&#45;&gt;GameTeam -->
<g id="edge20" class="edge"><title>Game&#45;&gt;GameTeam</title>
<path fill="none" stroke="#0e8af6" d="M828.314,-209.787C837.764,-191.694 845.551,-167.514 833,-150 826.38,-140.761 804.122,-132.428 781.431,-126.019"/>
<ellipse fill="none" stroke="#0e8af6" cx="826.165" cy="-213.638" rx="4.00002" ry="4.00002"/>
<polygon fill="#0e8af6" stroke="#0e8af6" points="781.377,-126.004 772.899,-119.049 776.551,-124.699 771.724,-123.393 771.724,-123.393 771.724,-123.393 776.551,-124.699 770.549,-127.737 781.377,-126.004 781.377,-126.004"/>
<text text-anchor="middle" x="855.5" y="-156.9" font-family="Times Roman,serif" font-size="14.00">teams</text>
</g>
<!-- Game&#45;&gt;GameProgress -->
<g id="edge26" class="edge"><title>Game&#45;&gt;GameProgress</title>
<path fill="none" stroke="#f11a34" d="M769.53,-228.83C706.121,-218.845 590.842,-197.459 560,-170 519.437,-133.886 536.56,-106.268 516,-56 514.882,-53.2673 513.698,-50.4304 512.501,-47.5979"/>
<ellipse fill="none" stroke="#f11a34" cx="773.792" cy="-229.492" rx="4.00001" ry="4.00001"/>
<polygon fill="#f11a34" stroke="#f11a34" points="512.388,-47.3345 512.586,-36.3704 510.419,-42.7384 508.45,-38.1424 508.45,-38.1424 508.45,-38.1424 510.419,-42.7384 504.314,-39.9144 512.388,-47.3345 512.388,-47.3345"/>
<text text-anchor="middle" x="562" y="-109.9" font-family="Times Roman,serif" font-size="14.00">progresses</text>
</g>
<!-- Member&#45;&gt;GameMember -->
<g id="edge32" class="edge"><title>Member&#45;&gt;GameMember</title>
<path fill="none" stroke="#3b5f7a" d="M423.06,-98.9606C475.369,-82.2925 562.631,-54.4872 619.235,-36.4504"/>
<ellipse fill="none" stroke="#3b5f7a" cx="418.984" cy="-100.259" rx="4.00001" ry="4.00001"/>
<polygon fill="#3b5f7a" stroke="#3b5f7a" points="619.558,-36.3478 630.452,-37.5993 624.322,-34.8298 629.086,-33.3117 629.086,-33.3117 629.086,-33.3117 624.322,-34.8298 627.719,-29.0241 619.558,-36.3478 619.558,-36.3478"/>
</g>
<!-- Member&#45;&gt;Team -->
<g id="edge30" class="edge"><title>Member&#45;&gt;Team</title>
<path fill="none" stroke="#dc4cb7" d="M372.462,-139.829C369.484,-149.407 367.628,-160.24 371,-170 376.247,-185.186 386.666,-199.528 395.973,-210.856"/>
<ellipse fill="none" stroke="#dc4cb7" cx="373.825" cy="-135.908" rx="4.00001" ry="4.00001"/>
<ellipse fill="#dc4cb7" stroke="#dc4cb7" cx="398.702" cy="-214.1" rx="4.00002" ry="4.00002"/>
</g>
<!-- Member&#45;&gt;TeamMember -->
<g id="edge28" class="edge"><title>Member&#45;&gt;TeamMember</title>
<path fill="none" stroke="#95fd81" d="M357.38,-88.8067C345.049,-75.0074 329.624,-57.7458 317.198,-43.8403"/>
<ellipse fill="none" stroke="#95fd81" cx="360.139" cy="-91.8932" rx="4.00002" ry="4.00002"/>
<ellipse fill="#95fd81" stroke="#95fd81" cx="314.387" cy="-40.6945" rx="4.00002" ry="4.00002"/>
</g>
<!-- Member&#45;&gt;GameProgress -->
<g id="edge34" class="edge"><title>Member&#45;&gt;GameProgress</title>
<path fill="none" stroke="#6a9b80" d="M406.954,-91.2834C425.436,-76.9259 449.686,-58.0867 468.796,-43.2409"/>
<ellipse fill="none" stroke="#6a9b80" cx="403.791" cy="-93.7407" rx="4.00002" ry="4.00002"/>
<polygon fill="#6a9b80" stroke="#6a9b80" points="469.01,-43.075 479.668,-40.4937 472.958,-40.0075 476.907,-36.9401 476.907,-36.9401 476.907,-36.9401 472.958,-40.0075 474.146,-33.3864 469.01,-43.075 469.01,-43.075"/>
</g>
<!-- Foul -->
<g id="node10" class="node"><title>Foul</title>
<ellipse fill="none" stroke="black" cx="894" cy="-235" rx="28.9914" ry="19.0919"/>
<text text-anchor="middle" x="894" y="-231.9" font-family="Times Roman,serif" font-size="14.00">Foul</text>
</g>
</g>
</svg>
